# xmcd
#
# Track frame offsets:
#	150
#	21857
#	52573
#	73653
#	97882
#	106159
#	126285
#	154025
#	182227
#	198621
#	216553
#	227561
#
# Disc length: 3344 seconds
#
# Revision: 0
# Processed by: cddbd v1.5.2PL0 Copyright (c) Steve Scherf et al.
# Submitted via: dBpowerAMP V4.0
#
DISCID=a00d0e0c
DTITLE=John Butler - Sunrise Over Sea
DYEAR=2004
DGENRE=Blues
TTITLE0=Treat Yo Momma
TTITLE1=Peaches And Cream
TTITLE2=Company Sin
TTITLE3=What You Want
TTITLE4=Damned To Hell
TTITLE5=Hello
TTITLE6=Bound To Ramble
TTITLE7=Seeing Angels
TTITLE8=There'll Come A Time
TTITLE9=Zebra
TTITLE10=Mist
TTITLE11=Old Man
EXTD=
EXTT0=
EXTT1=
EXTT2=
EXTT3=
EXTT4=
EXTT5=
EXTT6=
EXTT7=
EXTT8=
EXTT9=
EXTT10=
EXTT11=
PLAYORDER=
